<svg xmlns="http://www.w3.org/2000/svg" viewBox="0 0 320 56" fill="none">
  <defs>
    <linearGradient id="ge-grad" x1="0" y1="0" x2="1" y2="0">
      <stop offset="0%" stop-color="#5ee7a8"/>
      <stop offset="50%" stop-color="#38bdf8"/>
      <stop offset="100%" stop-color="#6366f1"/>
    </linearGradient>
    <linearGradient id="ge-grad-streak" x1="0" y1="0" x2="1" y2="0">
      <stop offset="0%" stop-color="#5ee7a8" stop-opacity="0.15"/>
      <stop offset="40%" stop-color="#5ee7a8" stop-opacity="0.6"/>
      <stop offset="100%" stop-color="#38bdf8" stop-opacity="0.9"/>
    </linearGradient>
  </defs>

  <!-- "Gutschein" text — uses currentColor so it adapts in dark mode -->
  <text x="0" y="41" font-family="Inter, system-ui, -apple-system, sans-serif" font-weight="800" font-style="italic" font-size="36" fill="currentColor" letter-spacing="-0.5">Gutschein</text>

  <!-- Speed streaks between the two words -->
  <g opacity="0.55">
    <rect x="162" y="12" width="22" height="3.2" rx="1.6" fill="url(#ge-grad-streak)"/>
    <rect x="155" y="18" width="30" height="3.2" rx="1.6" fill="url(#ge-grad-streak)"/>
    <rect x="160" y="24" width="26" height="3.2" rx="1.6" fill="url(#ge-grad-streak)"/>
    <rect x="152" y="30" width="34" height="3.2" rx="1.6" fill="url(#ge-grad-streak)"/>
    <rect x="158" y="36" width="24" height="3.2" rx="1.6" fill="url(#ge-grad-streak)"/>
    <rect x="164" y="42" width="18" height="3.2" rx="1.6" fill="url(#ge-grad-streak)"/>
  </g>
  <g opacity="0.3">
    <rect x="146" y="15" width="12" height="2.4" rx="1.2" fill="url(#ge-grad-streak)"/>
    <rect x="142" y="21" width="16" height="2.4" rx="1.2" fill="url(#ge-grad-streak)"/>
    <rect x="148" y="33" width="10" height="2.4" rx="1.2" fill="url(#ge-grad-streak)"/>
    <rect x="144" y="39" width="14" height="2.4" rx="1.2" fill="url(#ge-grad-streak)"/>
  </g>

  <!-- "Express" pill with gradient background -->
  <rect x="178" y="8" width="138" height="42" rx="10" fill="url(#ge-grad)"/>

  <!-- "Express" text -->
  <text x="198" y="38" font-family="Inter, system-ui, -apple-system, sans-serif" font-weight="800" font-style="italic" font-size="30" fill="white" letter-spacing="-0.3">Express</text>
</svg>
