<svg xmlns="http://www.w3.org/2000/svg" viewBox="0 0 1000 223.823" role="img" aria-label="Kaufland">
  <path fill="#000000" d="M200.392 2.343L198.049 0H2.343v5.076h195.706l-2.35-2.733h4.693V0h-2.343"/>
  <path fill="#000000" d="M198.049 223.823l2.343-2.343V2.343h-4.693V221.48l2.35-2.733v5.076h2.343"/>
  <path fill="#000000" d="M0 221.48l2.343 2.343h195.706v-5.076H2.343l2.733 2.733H0v2.343"/>
  <path fill="#000000" d="M2.343 0L0 2.343V221.48h5.076V2.343L2.343 5.076V0H0"/>
  <path fill="#000000" d="M15.234 208.589h73.435v-92.186H15.234"/>
  <path fill="#000000" d="M15.234 107.031h73.435V14.844H15.234"/>
  <path fill="#000000" d="M98.437 14.844h87.5l-87.5 92.187V14.844"/>
  <path fill="#000000" d="M98.437 116.403l87.5 92.186h-87.5v-92.186"/>
  <path fill="#000000" d="M250 101.948h-.389V44.526h-35.939v138.673h35.939v-60.155H250l46.875 60.155h46.486l-60.162-72.656 55.469-66.017h-44.922L250 101.948zm137.887 15.63h3.518l.779.389 1.175.39h1.175l.779.389 1.168.389.786.396 1.168.389.785.779.779.389.785.786.779.389.779.779.389.785.786.39.778.778.779 1.564.786 1.168 1.168 2.343v1.175l.396.779.389 1.175v.779l.39 1.175v6.25l-.39.779v1.175l-.389.779-.396 1.175v.779l-.389.779-.389 1.175-.39.779-.785.785-.779.785-.778 1.557-.786.786-.389.778-.779.786-.779.389-.785.779-.779.389-.786.396-1.168.389-.785.39-1.169.389-.778.39-1.175.389-1.175.39h-7.029l-1.175-.39-1.168-.389-1.175-.39-.778-.389-1.175-.39-.779-.389-1.174-.39-1.558-.785-.785-.779-.779-.389-.779-.786-.396-.778-.778-.39-.779-.785-.786-1.557-.778-.785-.39-.779-.389-1.175-.785-1.557V145.312l-.39-1.175v-.779l-.389-1.175v-.779l-.39-1.175v-6.25l.39-1.175v-.779l.389-1.175v-.779l.39-1.175 1.174-2.343.786-1.168.778-1.564.779-.778.778-.39.396-.778.779-.786.779-.389.785-.786.779-.389.779-.779 1.175-.389.779-.396 1.175-.389.778-.39 1.175-.389 2.343-.779h3.511zm51.172-25.002h-32.031v8.983l-.389-.779-1.954-1.954-4.686-3.518-1.954-1.168-1.564-.786-1.947-.778-1.954-.779-1.564-.396-1.954-.389-3.907-.779-1.954-.389h-8.983l-2.343.389-2.343.39-2.343.778-1.954.396-2.343.779-1.953 1.175-1.954.779-5.861 3.511-1.564 1.564-1.947 1.175-3.129 3.122-1.168 1.954-1.564 1.564-4.686 7.815-.785 1.947-.779 2.35-.779 1.953-1.564 4.686-.389 1.947-.396 2.35v2.732l-.389 2.343v4.686l.389 2.343v2.343l.786 4.693 1.564 4.686.779 1.954.779 2.343.785 1.954 4.686 7.808 1.564 1.564 1.558 1.954 3.129 3.129 1.558 1.168 1.954 1.564 1.564 1.168 3.907 2.343 2.343 1.175 1.954.779 2.343.785 1.953.39 2.343.778 2.343.39 2.343.396h8.983l1.954-.396 1.954-.39 1.953-.389 1.954-.39 1.954-.778 1.564-.786h1.168l.785-.779 1.558-.785.785-.389 1.168-.779 1.175-1.175.779-.389 2.343-2.343.389-.779.786-.389.389-1.175.389-.779h.389v10.151h32.031V92.576zm15.24 0v57.423l.39 2.343v2.732l.389 2.343.779 2.343.39 1.954.785 2.343 1.169 1.954.785 1.564 1.168 1.954 3.518 4.686 7.815 5.861 7.808 3.122 1.954.396 2.343.778 1.954.39 2.343.389 2.343.39h17.194l2.343-.39 2.343-.389 2.343-.39 2.343-.778 1.954-.396 1.953-.779 2.343-.779 1.954-.785 1.564-.779 1.954-.785 1.557-1.175 1.954-1.168 1.564-1.175 1.168-1.168 1.564-1.175 1.564-1.564 2.343-3.122.779-1.954 1.175-1.564.779-1.954.785-2.343.389-1.954.779-2.343.389-2.343.396-2.732V92.576h-32.031v52.736l-.396 1.954-.389 1.558v1.954l-1.564 3.129-.389.389-.779 1.564-.39.39-.389.778-1.564.779-.39.785-.785.39-.779.389h-.778l-.786.389-1.168.39h-.785l-1.169.396h-7.036l-.779-.396h-1.168l-.786-.39-.778-.389h-1.175l-.389-.389-.779-.39-.786-.785-.779-.389-1.564-1.558-.778-1.564-.39-.389-1.174-2.343v-.786l-.39-.779v-1.175l-.389-1.557-.39-1.954V92.576h-32.031zm146.091 26.56h22.263v-26.56H600.39V74.603l.39-1.557v-1.564l.389-1.564.786-1.168v-.396l.389-.779.39-.389v-.779l1.175-1.175.389-.389.39-.389h.779l.785-.786h.779l.389-.389h.786l.389-.39h5.861l1.557.39 1.175.389 1.564.39 1.168.785 1.564.389 1.168.779V38.275l-3.122-1.558-1.564-.396-1.953-.779-1.558-.389-1.564-.39h-8.204l-2.343.39-2.343.389-1.954.39-2.343.785-3.907 1.564-1.953 1.168-1.954.785-1.954 1.558-1.954 1.175-1.557 1.168-1.954 1.564-2.343 2.343-.786 1.175-1.564 1.557-.389 1.175-.779.779-.779 1.175-.785 1.564-.779 1.168-.785 1.564-.389 1.175-.39.779-.389 1.953-.779 1.954-.396 1.954v1.947l-.778 3.907v20.316h-11.326v26.56h11.326v64.063h32.032v-64.063zm27.345 64.063h32.031V36.717h-32.031v146.481zm94.53-65.62h3.518l1.168.389 1.175.39h.779l1.175.389.779.389 1.175.396.779.389.779.779 1.175.389.389.786.779.389 1.564 1.564.785.39.389.778.779.786.389.778.39 1.169 1.175 2.343.389 1.175.389.779.396 1.175v1.954l.389.779v4.297l-.389 1.175v1.954l-.396.779-.389 1.175-.778 1.557-.39 1.175-1.174 2.343-.779.779-.389.785-.779.389-1.564 1.564-.779.389-.389.779-1.175.389-1.557.786-1.175.389-.779.389-1.175.39-.778.389h-1.175l-1.168.396h-7.036l-1.168-.396h-.786l-1.168-.389-1.175-.39-.779-.389-.778-.389-1.175-.39-.779-.389-.785-.779-.779-.389-1.564-1.564-.389-.389-.786-.785-.389-.779-.779-.779-.785-1.564-.389-1.175-.779-1.557-.39-1.175v-.779l-.396-1.175v-1.954l-.389-1.168v-1.954l.389-1.175v-1.954l.396-.779v-1.175l.389-.779.389-1.175 1.175-2.343.389-1.168.786-.786.389-.778 2.732-2.733.785-.389.779-.786.786-.389.779-.779.778-.389 1.175-.396.779-.389 1.175-.39 1.168-.389h.786l1.168-.389h3.518zm51.561-25.002h-32.031v8.983l-.778-.779-.39-.786-.785-.779-.779-.389-1.564-1.175-1.168-1.168-1.954-1.175-1.564-1.168-1.564-.786-3.907-1.557-1.954-.396-1.557-.389-1.954-.39-1.954-.389-2.343-.39h-8.594l-2.343.39-2.343.389-2.35.779-2.343.396-1.947.779-1.954 1.175-2.349.779-3.901 2.343-1.564 1.168-1.954 1.564-1.564 1.175-3.122 3.122-1.564 1.954-1.168 1.564-1.558 1.954-2.343 3.907-.786 1.954-1.168 1.947-.786 2.35-.779 1.953-.389 2.343-.785 2.343-.39 1.947-.389 2.35-.39 2.732v9.372l1.168 7.036.786 2.343.389 2.343.779 1.954.786 2.343 5.861 9.761 1.557 1.564 1.175 1.954 3.122 3.129 1.954 1.168 1.564 1.564 7.815 4.686 2.343.779 1.947.785 2.35.389 2.343.779 2.343.389 2.343.396h8.983l1.954-.396 1.954-.389 3.907-.779 1.564-.778 1.954-.786h.779l1.168-.778 2.35-1.175.779-.779.778-.389.786-.786.778-.389.779-.779.396-.786 1.946-1.947.786-1.175.389-.779h.389v10.151h32.031V92.576zm47.661 0H789.45v90.623h32.038v-49.218l.389-1.954v-1.954l.389-1.954.39-.779v-.779l.389-1.175 2.343-4.686.785-.389.39-.779 1.168-1.175.786-.389.779-.389.779-.786.785-.389 1.169-.389.785-.389 1.168-.39h1.175l1.168-.389h5.083l2.343.779 1.168.389 1.175.39.779.389.785.396 1.557 1.557.39.786.785.779 1.565 3.129v1.168l.389.786v1.168l.389.779.39 1.954v53.515h32.031v-60.155l-.389-1.954v-1.954l-.389-1.557-.786-3.907-.389-1.564-.389-1.954-.779-1.564-.396-1.558-.778-1.564-.779-1.175-.785-1.557-1.168-1.175-.786-1.564-2.343-2.343-1.168-.779-1.175-1.175-1.557-.779-1.175-.779-3.122-1.564-1.954-.779-1.564-.396-1.564-.389-1.954-.39-1.954-.389-2.343-.39h-8.983l-1.954.39-1.953.389-2.343.389-1.954.39-1.564.785-1.168.389-.785.39-.779.389-.779.396-1.175.389-.778.779-.786.389-1.557 1.564-.786.389-2.343 2.343-.778 1.175-.779.779-.396.779-.778 1.175-.779.778h-.389V92.576zm146.481 90.623H1000V36.717h-32.031v64.842l-.389-.779-1.564-1.564-.779-.389-1.175-1.175-1.558-1.168-1.953-1.175-1.564-1.168-1.564-.786-1.953-.779-1.954-.778-1.954-.396-1.954-.389-3.901-.779-1.564-.389h-8.983l-2.343.389-2.343.39-2.35.778-2.343.396-1.954.779-2.343 1.175-1.954.779-3.901 2.343-1.564 1.168-1.954 1.564-1.564 1.175-3.122 3.122-1.564 1.954-1.175 1.564-1.557 1.954-2.343 3.907-.786 1.954-1.168 1.947-.786 2.35-.779 1.953-.389 2.343-.786 2.343-.389 1.947-.39 2.35-.389 2.732v9.372l1.168 7.036.786 2.343.389 2.343.779 1.954.786 2.343 2.343 3.907.779 1.947 1.564 1.954 1.168 1.954 1.564 1.564 1.175 1.954 3.122 3.129 1.954 1.168 1.564 1.564 7.808 4.686 2.35.779 1.947.785 2.35.389 2.343.779 2.343.389 2.343.396h8.983l1.954-.396 1.954-.389 1.954-.389 1.954-.39 1.558-.778 1.954-.786h.785l1.168-.778 2.343-1.175.786-.779.778-.389.786-.786.779-.389.778-.779.39-.786.785-.779 1.168-1.168.786-1.175.389-.779h.39v10.151zm-19.53-65.62h3.518l2.343.779h.779l1.175.389.778.389 1.175.396.786.389.778.779.786.389.778.786.779.389 1.565 1.564.778.39.397.778.778.786.389.778.389 1.169 1.175 2.343.389 1.175.39.779v1.175l.389.779v1.175l.396.779v4.297l-.396 1.175v.779l-.389 1.175v.779l-.39 1.175-.778 1.557-.397 1.175-1.168 2.343-.778.779-.39.785-.778.389-1.565 1.564-.778.389-.779.779-2.35 1.175-1.168.389-.778.389-1.175.39-.779.389h-1.175l-1.168.396h-7.036l-1.168-.396h-.786l-1.168-.389-1.175-.39-.779-.389-1.174-.389-2.343-1.175-.779-.779-.786-.389-2.732-2.739-.389-.778-.779-.779-.785-1.564-.39-1.175-.778-1.557-.39-1.175v-.779l-.396-1.175v-1.954l-.389-1.168v-1.954l.389-1.175v-1.954l.396-.779v-1.175l.39-.779.389-1.175 1.174-2.343.39-1.168.785-.786.39-.778 2.732-2.733.779-.389.786-.786.778-.389.779-.779.778-.389 1.175-.396.779-.389 1.175-.39 1.168-.389h.786l1.168-.389h3.518"/>
  <path fill="#000000" d="M213.672 223.823H999.221v-20.31H213.672"/>
</svg>
