<svg xmlns="http://www.w3.org/2000/svg" viewBox="-24 -18 700 255" role="img" aria-label="OTTO">
  <path
    fill="#000000"
    d="M589.638 95.853l-.593-7.089c-4.135-50.798-20.671-66.452-41.051-66.452-18.315 0-31.303 12.404-28.644 45.481l.593 7.387c4.137 50.505 20.674 66.454 41.053 66.454 18.019 0 31.305-12.7 28.642-45.781zm-457.794 0l-.594-7.089c-4.13-50.798-20.671-66.452-41.05-66.452-18.315 0-31.297 12.404-28.639 45.481l.586 7.387c4.138 50.505 20.676 66.454 41.057 66.454 18.013 0 31.298-12.7 28.64-45.781zm435.059 95.658c-32.446 0-58.837-10.003-77.485-30.708 2.656 7.19 4.056 15.956 4.238 26.282H379.948c-24.811 0-38.989-10.926-48.736-38.99l5.022 38.99H221.338c-21.03 0-35.477-10.057-40.696-29.753-14.235 22.818-39.537 34.19-71.548 34.19-60.839 0-100.418-35.15-107.505-110.166L.707 71.903C-5.495 4.138 29.654-29 84.291-29c60.844 0 100.424 35.443 107.508 110.466l.886 9.451c1.599 17.204.431 32.155-3.09 44.896h51.524L226.355 9.394c-2.957-25.113 10.631-36.634 33.369-36.634 13.881 0 18.603.886 23.92 1.77L301.957 135.8h59.957L347.149 9.394c-2.952-25.113 10.632-36.634 33.374-36.634 13.875 0 18.602.886 23.92 1.77L422.75 135.8h29.538c10.218 0 18.471 2.374 24.839 7.068-9.298-16.387-15.37-37.081-17.754-62.298l-.885-9.456C452.282 4.138 487.427-29 542.069-29c60.847 0 100.419 35.443 107.505 110.466l.886 9.451c6.202 66.753-28.941 99.893-83.557 99.893z"
    transform="matrix(1 0 0 -1 0 175.785)"
  />
</svg>
